<svg display="none" xmlns="http://www.w3.org/2000/svg">


	<symbol id="brand01" viewBox="0 0 103 35"> 
		<g clip-path="url(#clip0_964_17555)">
		<path d="M23.2553 32.4249L29.4193 32.5526C27.2949 31.8183 25.2349 30.9244 23.2553 29.8709V32.4249ZM32.5414 31.5789V32.4249L29.4193 32.5526C35.2935 34.5479 40.6688 34.8193 44.66 33.7019C41.4574 33.7338 37.2891 33.2869 32.5414 31.5789ZM98.3488 13.1901C100.908 13.1901 103 11.131 103 8.577C103 6.02301 100.924 4.6662 98.3488 4.6662C95.7899 4.6662 93.6977 6.03897 93.6977 8.577C93.6977 11.115 95.7738 13.1901 98.3488 13.1901ZM93.6816 32.4249H103V14.7864H93.6816V32.4249ZM81.8205 32.4249H91.1388V1.25024L81.8205 5.60799V32.4249ZM76.8314 13.3657C73.9024 10.4606 68.7202 10.6362 68.7202 10.6362C68.7202 10.6362 63.5219 10.4606 60.6089 13.3657C57.6799 16.2709 57.9052 18.777 57.9052 21.762C57.9052 24.747 57.6799 27.2371 60.6089 30.1423C63.538 33.0474 68.7202 32.8718 68.7202 32.8718C68.7202 32.8718 73.9185 33.0474 76.8314 30.1423C79.7605 27.2371 79.5352 24.747 79.5352 21.762C79.5191 18.761 79.7444 16.2549 76.8314 13.3657ZM70.4261 24.8427C70.4261 25.4174 70.1364 26.838 68.7041 26.838C67.2718 26.838 66.9821 25.4174 66.9821 24.8427V18.3939C66.9821 17.0052 68.1569 16.654 68.7041 16.654C69.2513 16.654 70.4261 16.9892 70.4261 18.3939V24.8427ZM53.3346 13.3657C50.4055 10.4606 45.2233 10.6362 45.2233 10.6362C45.2233 10.6362 40.0411 10.4606 37.1121 13.3657C36.8063 13.669 36.5166 13.9883 36.2591 14.3235C30.1113 9.5986 24.5911 6.90094 19.8274 4.57043V1.2662L16.2063 2.95822C7.45129 -0.569481 1.88285 0.0530559 0.547068 2.97418C0.547068 2.97418 -3.46028 8.20986 10.493 20.6606V32.4249H19.8113V27.8596C18.7652 27.1892 17.7191 26.4709 16.6891 25.6887C14.3072 23.9009 12.2794 22.2409 10.5091 20.6765V15.7282C12.6174 18.0747 15.4177 20.7404 19.1032 23.7573L19.8274 24.3319V19.5751C19.8274 18.4737 20.101 16.67 21.5655 16.67C23.03 16.67 23.2714 17.7714 23.2714 19.0643V26.838C26.1683 28.7855 29.2744 30.3657 32.5575 31.5629V16.5742C32.5575 13.5892 30.401 10.6042 26.0235 10.6042C23.4807 10.5883 21.1149 11.9132 19.8274 14.1V5.4324C26.5707 8.76855 33.33 12.8549 35.905 14.7385C34.2635 17.069 34.4083 19.2239 34.4083 21.7141C34.4083 24.6991 34.183 27.1892 37.1121 30.0944C40.0411 32.9995 45.2233 32.824 45.2233 32.824C45.2233 32.824 50.4216 32.9995 53.3346 30.0944C56.2636 27.1892 56.0222 24.6991 56.0222 21.7141C56.0222 18.761 56.2636 16.2549 53.3346 13.3657ZM10.493 5.60799V15.7122C2.65535 7.01268 4.23254 3.58076 4.82801 3.08592C7.00066 1.2662 10.8632 1.80892 15.1924 3.42113L10.493 5.60799ZM46.9453 24.8427C46.9453 25.4174 46.6557 26.838 45.2233 26.838C43.791 26.838 43.5013 25.4174 43.5013 24.8427V18.3939C43.5013 17.0052 44.6761 16.654 45.2233 16.654C45.7705 16.654 46.9453 16.9892 46.9453 18.3939V24.8427Z"/>
		</g>
		<defs>
		<clipPath id="clip0_964_17555">
		<rect width="103" height="34" fill="white" transform="translate(0 0.5)"/>
		</clipPath>
		</defs>
	</symbol>

	<symbol id="brand02" viewBox="0 0 84 59"> 
		<g clip-path="url(#clip0_964_17558)">
		<path d="M0.5 0.995234H13.1121V35.0099C13.1121 40.4046 15.5437 43.6154 17.5215 44.9519C15.4627 46.761 9.22148 48.3582 4.52031 44.4955C1.76445 42.2137 0.5 38.4162 0.5 34.8795V0.995234ZM79.2689 29.2729V25.6872H83.1272V13.1701H78.8961C77.2588 5.62396 70.5961 0.017334 62.6365 0.017334C53.4611 0.017334 45.9879 7.51457 45.9879 16.7557V45.9624C48.5816 46.3372 51.7266 45.9135 54.3689 43.6806C57.141 41.3988 58.3893 37.6176 58.3893 34.0646V32.9726H64.6791V20.4555H58.3893V16.6579C58.3893 11.0187 66.8514 11.0187 66.8514 16.6579V29.224C66.8514 38.4488 74.3084 45.9624 83.5 45.9624V33.4941C81.1494 33.4941 79.2689 31.5872 79.2689 29.2729ZM31.5602 13.1375V31.5546C31.5602 34.0646 27.702 34.0646 27.702 31.5546V13.1375H15.252V34.7654C15.252 38.6444 16.5488 43.5665 22.5469 45.18C28.5449 46.7773 31.9816 43.4524 31.9816 43.4524C31.6412 45.6364 29.6311 47.2499 26.324 47.5759C23.8113 47.8367 20.6178 46.9892 19.0291 46.3046V57.7624C23.098 58.9847 27.3777 59.3596 31.6088 58.5284C39.2441 57.0452 44.0588 50.64 44.0588 42.0996V13.056H31.5602V13.1375Z"/>
		</g>
		<defs>
		<clipPath id="clip0_964_17558">
		<rect width="83" height="59" fill="white" transform="translate(0.5)"/>
		</clipPath>
		</defs>
	</symbol>

	<symbol id="brand03" viewBox="0 0 110 75"> 
		<g filter="url(#filter0_d_964_17561)">
		<path d="M106 0.145752C93.1225 8.82826 91.7519 15.1296 90.6362 17.0572C89.5684 19.0334 88.7716 26.825 86.9228 30.5993C85.0581 34.4222 78.2847 37.4352 76.3881 38.6987C74.5234 39.9622 71.8778 44.8704 69.7103 49.0982C52.4819 48.3855 43.0309 55.3833 28.4003 64.2602C33.0859 62.6889 35.3012 61.555 35.3012 61.555C50.3144 55.7235 57.5022 50.4913 80.1016 53.5853C80.2769 53.5853 80.4044 53.6825 80.5478 53.7149C81.1694 54.0712 81.3925 54.8326 81.0419 55.4643L72.4516 70.9827C72.0531 71.744 71.2084 72.149 70.3637 71.9708C50.155 68.1155 34.2016 74.7732 19.5391 74.9838C7.84094 75.1619 4 69.5572 4 69.298C4 69.1198 4.09563 69.0226 4.27094 69.0226C4.27094 69.0226 10.375 69.0226 20.7025 66.5442C32.4325 43.8175 42.8875 35.8639 54.2669 35.8639C54.2669 35.8639 65.6941 35.8639 68.7062 45.8909C72.34 39.46 73.2166 37.9211 73.2166 37.9211C74.0612 36.3985 78.7947 25.4157 86.9866 15.0162C95.1944 4.64899 101.394 2.0734 106 0.145752Z" />
		</g>
		<defs>
		<filter id="filter0_d_964_17561" x="0" y="0" width="110" height="83" filterUnits="userSpaceOnUse" color-interpolation-filters="sRGB">
		<feFlood flood-opacity="0" result="BackgroundImageFix"/>
		<feColorMatrix in="SourceAlpha" type="matrix" values="0 0 0 0 0 0 0 0 0 0 0 0 0 0 0 0 0 0 127 0" result="hardAlpha"/>
		<feOffset dy="4"/>
		<feGaussianBlur stdDeviation="2"/>
		<feComposite in2="hardAlpha" operator="out"/>
		<feColorMatrix type="matrix" values="0 0 0 0 0 0 0 0 0 0 0 0 0 0 0 0 0 0 0.25 0"/>
		<feBlend mode="normal" in2="BackgroundImageFix" result="effect1_dropShadow_964_17561"/>
		<feBlend mode="normal" in="SourceGraphic" in2="effect1_dropShadow_964_17561" result="shape"/>
		</filter>
		</defs>
	</symbol>

	<symbol id="brand04" viewBox="0 0 103 43"> 
		<g clip-path="url(#clip0_964_17564)">
		<path d="M26.5552 3.79318L19.5866 5.25682L19.5544 27.9114C19.5544 32.0955 22.741 34.8 26.9736 34.8C29.3233 34.8 31.0454 34.3705 31.9949 33.8614V28.4841C31.0775 28.85 26.5713 30.1546 26.5713 25.9864V15.9318H31.9949V9.91818H26.5713L26.5552 3.79318ZM40.8947 12.0023L40.4602 9.91818H34.2802V34.2909H41.4097V17.8886C43.0996 15.6932 45.9482 16.1227 46.8655 16.4091V9.91818C45.8999 9.58409 42.5685 8.96364 40.8947 12.0023ZM55.7493 0.5L48.5714 2.01136V7.77045L55.7493 6.25909V0.5ZM7.2266 17.0932C7.2266 15.9955 8.16004 15.5659 9.65676 15.55C11.8294 15.55 14.5975 16.2023 16.7702 17.3636V10.7136C14.4044 9.79091 12.0386 9.425 9.67285 9.425C3.8791 9.425 0.0166016 12.4159 0.0166016 17.4114C0.0166016 25.2386 10.8799 23.9659 10.8799 27.3386C10.8799 28.6432 9.73723 29.0727 8.14395 29.0727C5.77816 29.0727 2.72035 28.1023 0.322383 26.8136V33.1773C2.97785 34.3068 5.66551 34.7841 8.12785 34.7841C14.0664 34.7841 18.1543 32.2705 18.1543 27.1796C18.1543 18.7636 7.2266 20.275 7.2266 17.0932ZM103.001 22.3909C103.001 15.1523 99.4599 9.44091 92.6683 9.44091C85.8768 9.44091 81.7407 15.1523 81.7407 22.3432C81.7407 30.8545 86.6171 34.7841 93.5696 34.7841C96.9815 34.7841 99.5404 34.0205 101.488 32.9545V27.6409C99.5404 28.6114 97.3033 29.2 94.4708 29.2C91.6866 29.2 89.2404 28.2295 88.9185 24.9205H102.904C102.936 24.5545 103.001 23.075 103.001 22.3909ZM88.8541 19.7182C88.8541 16.5364 90.8336 15.2 92.6201 15.2C94.3743 15.2 96.2411 16.5364 96.2411 19.7182H88.8541ZM70.6843 9.44091C67.884 9.44091 66.0815 10.7455 65.0836 11.6523L64.7135 9.90227H58.4208V42.4841L65.5665 40.9886L65.5825 33.0023C66.6125 33.75 68.1414 34.7841 70.636 34.7841C75.7538 34.7841 80.421 31.0932 80.421 22.1205C80.4371 13.9114 75.7055 9.44091 70.6843 9.44091ZM68.9783 28.9296C67.3046 28.9296 66.3068 28.325 65.6147 27.5932L65.5665 17.0932C66.3068 16.2818 67.3368 15.6932 68.9783 15.6932C71.5855 15.6932 73.388 18.5886 73.388 22.2795C73.4041 26.0818 71.6338 28.9296 68.9783 28.9296ZM48.5875 34.2909H55.7654V9.91818H48.5875V34.2909Z" />
		</g>
		<defs>
		<clipPath id="clip0_964_17564">
		<rect width="103" height="42" fill="white" transform="translate(0 0.5)"/>
		</clipPath>
		</defs>
	</symbol>

	<symbol id="brand05" viewBox="0 0 105 63"> 
		<g clip-path="url(#clip0_964_17567)">
		<path d="M29.8868 22.9887C29.7701 26.6268 31.6039 28.2378 31.6492 29.261C31.6277 29.4692 31.5561 29.6693 31.4405 29.8445C31.325 30.0197 31.1688 30.165 30.9851 30.2681L28.9116 31.7072C28.6432 31.8938 28.3269 32.0007 27.9995 32.0156C27.9299 32.0124 26.6728 32.3096 24.6819 27.9021C23.4672 29.4055 21.9218 30.6133 20.1638 31.4332C18.4058 32.2531 16.482 32.6633 14.5395 32.6324C11.9022 32.7754 4.75504 31.1483 5.12277 23.6039C4.8652 17.4553 10.6403 13.6357 16.613 13.9585C17.7631 13.9618 20.1121 14.018 24.2251 14.9656V12.4567C24.6608 8.20668 21.8438 4.90911 16.9661 5.40383C16.5773 5.40543 13.8235 5.32352 9.54034 7.02771C8.34806 7.57061 8.19579 7.48067 7.79891 7.48067C6.59853 7.48067 7.09261 4.03051 7.32264 3.59362C8.16663 2.56564 13.1317 0.646211 18.0045 0.673517C21.2626 0.387814 24.5032 1.38483 27.0259 3.44906C28.0514 4.5864 28.8338 5.91801 29.3257 7.3635C29.8177 8.80898 30.0091 10.3383 29.8884 11.8592L29.8868 22.9887ZM15.8873 28.1912C21.1407 28.1157 23.3649 24.9836 23.8719 23.2971C24.2704 21.6828 24.204 20.6613 24.204 18.8961C22.6375 18.5234 20.3826 18.117 17.7955 18.1138C15.3413 17.9307 10.859 19.0181 11.0339 23.2955C10.833 25.9923 12.8353 28.339 15.8873 28.1912ZM43.5752 31.8936C42.302 32.0092 41.7091 31.1129 41.5211 30.2279L33.4539 3.78155C33.2967 3.33502 33.193 2.87403 33.1428 2.40341C33.1131 2.20939 33.1622 2.01158 33.2795 1.85346C33.3967 1.69535 33.5725 1.58985 33.7681 1.56015C33.807 1.55372 33.4231 1.56015 37.3725 1.56015C38.7948 1.4188 39.2581 2.5287 39.4055 3.2258L45.1919 25.8462L50.5636 3.2258C50.6495 2.70859 51.0399 1.44771 52.6372 1.58103H55.417C55.7685 1.55212 57.2167 1.50072 57.4711 3.24668L62.8849 26.1562L68.8576 3.24668C68.9353 2.89652 69.2982 1.42041 70.9117 1.58103H74.1062C74.2439 1.56015 75.1024 1.45093 74.9567 2.95916C74.887 3.25631 75.5091 1.24694 66.4115 30.2488C66.2252 31.1338 65.6307 32.0301 64.3574 31.9144H61.3297C59.5575 32.0992 59.3032 30.3628 59.2757 30.1878L53.9039 8.1617L48.5938 30.1653C48.5679 30.3404 48.3135 32.0767 46.5397 31.892H43.5752V31.8936ZM87.8773 32.7979C86.9248 32.7995 82.3824 32.7497 78.5853 30.8238C78.2071 30.665 77.8849 30.3984 77.6597 30.0579C77.4344 29.7173 77.3163 29.3181 77.3201 28.9108V27.1841C77.3201 25.8269 78.3245 26.0758 78.7505 26.2381C80.377 26.8902 81.4202 27.3849 83.4176 27.78C89.3547 28.9895 91.966 27.4106 92.6059 27.0605C94.7361 25.806 94.9046 22.9357 93.4563 21.4467C91.7587 20.0349 90.9487 19.9819 84.8496 18.0737C84.098 17.8665 77.7705 15.8876 77.7559 9.66352C77.6571 5.12756 81.8139 0.639785 89.0177 0.676728C91.0702 0.675122 96.5391 1.3401 98.0197 3.18564C98.2384 3.52134 98.3469 3.91647 98.3307 4.31642V5.9403C98.3307 6.65346 98.0683 7.01004 97.5418 7.01004C96.2929 6.87191 94.0768 5.2159 89.5782 5.28336C88.4621 5.22554 83.1163 5.42953 83.356 9.29409C83.2864 12.3395 87.6667 13.4815 88.1672 13.6132C94.0735 15.3752 96.0482 15.6676 98.3923 18.3644C101.169 21.9382 99.6721 26.1224 99.097 27.2693C96.0061 33.291 88.0134 32.8011 87.8773 32.7979ZM94.3894 49.6407C83.045 57.948 66.5767 62.3699 52.5157 62.3699C33.543 62.494 15.2098 55.5768 1.1199 42.9781C0.0620835 42.032 0.995168 40.7358 2.2814 41.457C17.9113 50.322 35.6076 54.9799 53.614 54.9685C67.0607 54.897 80.3606 52.1923 92.75 47.0097C94.6583 46.2066 96.2767 48.2625 94.3894 49.6407ZM99.118 44.2936C97.6666 42.4432 89.515 43.4294 85.8653 43.8615C84.7654 43.9852 84.5791 43.0391 85.5753 42.3404C92.0664 37.8157 102.727 39.1119 103.952 40.633C105.175 42.1541 103.62 52.7455 97.5434 57.8051C96.6104 58.5873 95.7178 58.1745 96.1325 57.1465C97.4997 53.7333 100.569 46.1455 99.118 44.2936Z" />
		</g>
		<defs>
		<clipPath id="clip0_964_17567">
		<rect width="104" height="62" fill="white" transform="translate(0.5 0.5)"/>
		</clipPath>
		</defs>
	</symbol>

	<symbol id="brand06" viewBox="0 0 77 73"> 
		<g clip-path="url(#clip0_964_17570)">
		<path d="M67.926 28.1614C65.531 28.1614 63.4234 29.1556 61.8747 30.7111C56.1747 26.7503 48.4949 24.2006 39.9848 23.928L44.4075 3.91556L58.4898 7.09061C58.4898 10.5543 61.2999 13.3766 64.7486 13.3766C68.2613 13.3766 71.0873 10.4741 71.0873 7.01043C71.0873 3.54674 68.2772 0.644287 64.7486 0.644287C62.2898 0.644287 60.1663 2.1356 59.1125 4.17213L43.5613 0.70843C42.7789 0.499966 42.0125 1.06121 41.805 1.84696L36.9512 23.912C28.505 24.2648 20.905 26.8144 15.189 30.7752C13.6403 29.1556 11.4529 28.1614 9.0579 28.1614C0.18059 28.1614 -2.72529 40.124 5.4016 44.2131C5.1142 45.4799 4.98647 46.8269 4.98647 48.1739C4.98647 61.6118 20.0587 72.5 38.5638 72.5C57.1487 72.5 72.2209 61.6118 72.2209 48.1739C72.2209 46.8269 72.0772 45.4158 71.726 44.149C79.6932 40.0438 76.7554 28.1614 67.926 28.1614ZM18.2865 45.063C18.2865 41.5351 21.0966 38.6968 24.6251 38.6968C28.0739 38.6968 30.884 41.5191 30.884 45.063C30.884 48.5267 28.0739 51.349 24.6251 51.349C21.1125 51.365 18.2865 48.5267 18.2865 45.063ZM52.5024 60.0563C46.6907 65.8933 30.2932 65.8933 24.4814 60.0563C23.8428 59.4951 23.8428 58.5008 24.4814 57.8594C25.0403 57.2982 26.0302 57.2982 26.589 57.8594C31.0276 62.4296 45.7487 62.5098 50.3789 57.8594C50.9377 57.2982 51.9276 57.2982 52.4865 57.8594C53.1411 58.5008 53.1411 59.4951 52.5024 60.0563ZM52.3747 51.365C48.926 51.365 46.1159 48.5427 46.1159 45.079C46.1159 41.5512 48.926 38.7129 52.3747 38.7129C55.8873 38.7129 58.7134 41.5351 58.7134 45.079C58.6974 48.5267 55.8873 51.365 52.3747 51.365Z" />
		</g>
		<defs>
		<clipPath id="clip0_964_17570">
		<rect width="76" height="72" fill="white" transform="translate(0.5 0.5)"/>
		</clipPath>
		</defs>
	</symbol>


</svg>










<!-- Пример кода для index.html - как вставляем икнку -->
	<svg class="icon-user">
		<use xlink:href="sprite.svg#user"></use>
	</svg> 